<?xml version="1.0" encoding="utf-8"?>
<!-- Generator: Adobe Illustrator 18.0.0, SVG Export Plug-In . SVG Version: 6.00 Build 0)  -->
<!DOCTYPE svg PUBLIC "-//W3C//DTD SVG 1.1//EN" "http://www.w3.org/Graphics/SVG/1.1/DTD/svg11.dtd">
<svg version="1.1" id="Layer_1" xmlns="http://www.w3.org/2000/svg" xmlns:xlink="http://www.w3.org/1999/xlink" x="0px" y="0px"
	 viewBox="0 15 170 140" enable-background="new 0 15 170 140" xml:space="preserve">
<g id="Layer_2" display="none">
	<rect x="-33.1" y="0.7" display="inline" fill="#57475E" width="228" height="160.5"/>
</g>
<g id="Layer_1_1_">
	<g>
		<g>
			<g>
				<path fill="#D22328" d="M65.3,89.2H51.7L51.4,89l-2.5-4.9v-0.3l4.5-12.1l26-24.3l0.1-0.1l25.4-8.4l10.8,0.8v0.8l-19.3,4.2
					L80,54.2L60.4,75.9l3.2,7l16.1-1.2l0.2,0.8L65.3,89.2z M51.9,88.4h13.3l12.4-5.8l-14.2,1.1l-0.3-0.2L59.7,76l0.1-0.5l19.8-22
					l16.7-9.6l16.8-3.5l-7.9-0.6L80,48.1L54.1,72.1l-4.3,11.7L51.9,88.4z"/>
			</g>
			<g>
				<path fill="#D22328" d="M51.5,89.1l-4.8-5.4l-0.2-0.2l-2.9-15.9v-0.1l2.9-15.3L54.2,37l0.2-0.2l24.4-11.9H79l22.5,3.3l0.2,0.1
					l14.2,11.6l-0.2,0.7L105,39.7L79.8,48l-25.7,24l-4.3,11.7l2.4,4.8L51.5,89.1z M47.3,83.2l2.7,3.1l-1-2.2v-0.3l4.5-12.1l26-24.3
					l0.1-0.1l25.4-8.4l9.4,0.7l-13.2-10.7L79,25.7L54.9,37.5l-7.6,14.9l-2.8,15.1L47.3,83.2z"/>
			</g>
			<g>
				<path fill="#D22328" d="M47.3,83.5l-0.8-0.2V64.2l0.7-0.2l6.8,7.7v0.5L47.3,83.5z M47.3,65.3v16.6l5.9-10L47.3,65.3z"/>
			</g>
			<g>
				
					<rect x="53.8" y="37.1" transform="matrix(-0.9997 -2.603180e-02 2.603180e-02 -0.9997 106.8746 110.3789)" fill="#D22328" width="0.8" height="34.7"/>
			</g>
			<g>
				<path fill="#D22328" d="M54.1,72l-0.8-0.2l6.1-21.1l-5.2-13.4l0.6-0.6l11.5,4.5l0.2,0.6l-5.7,8.3l18.9-2.8l0.1,0.8L60.2,51
					L54.1,72z M55.3,37.8l4.6,12l5.4-7.9L55.3,37.8z"/>
			</g>
			<g>
				<polygon fill="#D22328" points="54,72.2 53.5,71.6 65.1,63.7 79.3,53.7 79.3,47.7 79.6,47.2 96.1,43.9 104.8,39 105.2,39.6 
					96.3,44.6 80.2,48 80.2,53.9 80,54.2 65.6,64.4 				"/>
			</g>
			<g>
				<polygon fill="#D22328" points="80,48 79.4,47.5 92.9,31.1 79,25.7 58.2,35.9 63.7,34.5 64,35.2 54.8,37.6 54.4,36.8 78.8,24.9 
					79.2,24.9 93.7,30.6 93.8,31.1 83.1,44.2 101.3,28.3 102,28.4 105.4,39.2 104.7,39.4 101.4,29.2 				"/>
			</g>
			<g>
				<polygon fill="#D22328" points="44.3,67.6 43.8,67.2 46.5,64 46.5,52.2 47.3,52.2 47.3,64.2 47.2,64.5 				"/>
			</g>
			<g>
				<path fill="#D22328" d="M79.6,48L66,42l-0.2-0.6l12.9-12.2L78.6,26L64,35.3l-0.3-0.8l15.2-9.6l0.6,0.3l0.1,3.7l13.9,1.6l7.9-2.4
					l0.2,0.8l-8.2,2.4l-13.9-1.6l0.6,17.9L79.6,48z M66.8,41.6L79.3,47l-0.6-16.9L66.8,41.6z"/>
			</g>
			<g>
				<polygon fill="#D22328" points="65.7,41.8 63.5,35 63.7,34.5 78.9,28.9 79.3,29.7 64.3,35.1 66.5,41.6 				"/>
			</g>
			<g>
				
					<rect x="50.4" y="36.6" transform="matrix(-0.9619 -0.2733 0.2733 -0.9619 85.7655 113.1988)" fill="#D22328" width="0.8" height="28.1"/>
			</g>
			<g>
				<path fill="#D22328" d="M52.7,82.5l-0.6-0.6L65,63.8l0,0l0,0l14.4-16.3L80,48L65.7,64.2l-5.4,11.9L52.7,82.5z M63.3,67.6
					l-8.7,12.2l5.1-4.3L63.3,67.6z"/>
			</g>
			<g>
				
					<rect x="47" y="83.2" transform="matrix(-0.9716 -0.2368 0.2368 -0.9716 75.1351 176.2109)" fill="#D22328" width="2.4" height="0.8"/>
			</g>
			<g>
				<polygon fill="#D22328" points="49.4,84.2 49.1,83.5 52.1,81.9 53.3,71.8 54.1,72 52.8,82.2 52.6,82.5 				"/>
			</g>
			<g>
				<path fill="#D22328" d="M65.1,89.1l-12.4-6.4l-0.6,6.1l-0.8-0.1l0.7-6.6l0.5-0.2v-0.1l10.9,1.2l0.3,0.2l1.9,5.4L65.1,89.1z
					 M54.5,82.7l10.1,5.2l-1.5-4.2L54.5,82.7z"/>
			</g>
		</g>
		<g>
			<g>
				<path fill="#FED035" d="M64.9,96l-10.8-0.8v-0.8l19.4-4.1l16.4-9.5l19.5-21.7l-3.2-7l-16.1,1.2l-0.2-0.8l14.6-6.8h13.6l0.3,0.2
					l2.5,4.9v0.3l-4.5,12.1l-26,24.2l-0.1,0.1L64.9,96z M56.9,94.5l7.9,0.6L90,86.8l25.9-24l4.3-11.7l-2.3-4.5h-13.3l-12.4,5.8
					l14.2-1.1l0.3,0.2l3.4,7.5l-0.1,0.5l-19.7,22L73.7,91L56.9,94.5z"/>
			</g>
			<g>
				<path fill="#FED035" d="M90.8,110.1l-22.5-3.3l-0.2-0.1L54,95.1l0.2-0.7l10.7,0.8L90,86.9l25.9-24l4.3-11.7l-2.4-4.8l0.7-0.5
					l4.8,5.4l0.1,0.2l2.9,15.9v0.1L123.4,83L115.7,98l-0.2,0.2l-24.4,11.8H90.8z M68.5,106l22.2,3.3l24.2-11.8l7.6-14.9l2.8-15.1
					l-2.8-15.7l-2.7-3.1l1,2.2v0.3l-4.5,12.1l-25.7,24l-0.1,0.1L65,96l-9.4-0.7L68.5,106z"/>
			</g>
			<g>
				<path fill="#FED035" d="M122.7,70.9l-6.8-7.7v-0.5l6.8-11.5l0.8,0.2v19.1L122.7,70.9z M116.7,63l5.9,6.7V53L116.7,63z"/>
			</g>
			<g>
				
					<rect x="115.3" y="63" transform="matrix(-0.9997 -2.603180e-02 2.603180e-02 -0.9997 229.3469 163.6914)" fill="#FED035" width="0.8" height="34.7"/>
			</g>
			<g>
				<path fill="#FED035" d="M115.1,98.2l-11.5-4.5l-0.2-0.6l5.7-8.3l-18.9,2.8L90,86.8l19.6-2.9l6.1-21l0.8,0.2l-6.1,21.1l5.2,13.4
					L115.1,98.2z M104.4,93.1l10.1,4.1l-4.6-12L104.4,93.1z"/>
			</g>
			<g>
				<polygon fill="#FED035" points="65.1,95.9 64.8,95.2 73.6,90.2 89.8,86.9 89.8,81 89.9,80.7 104.3,70.5 116,62.7 116.4,63.3 
					104.8,71.2 90.6,81.3 90.6,87.3 90.3,87.6 73.8,91 				"/>
			</g>
			<g>
				<polygon fill="#FED035" points="90.7,110.1 76.2,104.4 76.1,103.7 86.8,90.8 68.6,106.7 68,106.4 64.5,95.7 65.3,95.4 
					68.6,105.6 89.9,86.9 90.5,87.5 77,103.8 90.8,109.3 111.7,99.1 106.2,100.4 105.9,99.6 115.2,97.4 115.5,98.2 91.1,110.1 				
					"/>
			</g>
			<g>
				<polygon fill="#FED035" points="123.4,82.7 122.6,82.7 122.6,70.7 122.7,70.4 125.5,67.2 126.2,67.8 123.4,70.8 				"/>
			</g>
			<g>
				<path fill="#FED035" d="M91.1,109.9l-0.6-0.3l-0.1-3.6l-13.9-1.6l-7.9,2.4l-0.2-0.8l8.2-2.4l13.9,1.6l-0.6-17.9l0.6-0.3l13.6,6
					l0.1,0.7l-12.9,12.1l0.1,3.2l14.6-9.3l0.5,0.7L91.1,109.9z M90.6,87.8l0.6,16.9l11.9-11.3L90.6,87.8z"/>
			</g>
			<g>
				<polygon fill="#FED035" points="91,106 90.6,105.2 105.6,99.7 103.4,93.3 104.2,93.1 106.5,99.9 106.2,100.4 				"/>
			</g>
			<g>
				
					<rect x="118.7" y="70.1" transform="matrix(-0.9618 -0.2737 0.2737 -0.9618 210.6679 197.8131)" fill="#FED035" width="0.8" height="28.1"/>
			</g>
			<g>
				<path fill="#FED035" d="M90.5,87.5l-0.6-0.6l14.4-16.3l5.4-11.9l7.5-6.4l0.6,0.6L105,71.1l0,0l0,0L90.5,87.5z M110.2,59.3
					l-3.6,7.9l8.7-12.2L110.2,59.3z"/>
			</g>
			<g>
				
					<rect x="120.6" y="50.9" transform="matrix(-0.9715 -0.2369 0.2369 -0.9715 227.8922 129.8831)" fill="#FED035" width="2.4" height="0.8"/>
			</g>
			<g>
				<polygon fill="#FED035" points="116.6,63 115.8,63 117,52.7 117.3,52.3 120.4,50.6 120.8,51.3 117.8,53 				"/>
			</g>
			<g>
				<path fill="#FED035" d="M117.4,53.1l-10.9-1.2l-0.3-0.2l-1.9-5.4l0.6-0.5l12.4,6.4l0.7-6l0.8,0.1l-0.7,6.6l-0.5,0.2L117.4,53.1z
					 M106.8,51.2l8.5,0.9l-10.1-5.2L106.8,51.2z"/>
			</g>
		</g>
	</g>
	<g>
		<path fill="#FFFFFF" d="M8.4,126.6l3.2,8.5H5.1L8.4,126.6z M0.9,141.5h1.7l2-5.1h7.5l2,5.1h1.7L9.4,125H7.6L0.9,141.5z"/>
		<path fill="#FFFFFF" d="M28.9,130c-0.6-2.5-2.6-4-5.1-4c-4.4,0-6.2,3.6-6.2,7.3c0,3.6,1.8,7.3,6.2,7.3c3.1,0,5-2.4,5.3-5.3h1.6
			c-0.5,4.1-3.1,6.7-6.9,6.7c-5.2,0-7.8-4.1-7.8-8.6c0-4.5,2.6-8.6,7.8-8.6c3.2,0,6.2,1.9,6.7,5.3C30.5,130,28.9,130,28.9,130z"/>
		<path fill="#FFFFFF" d="M33.1,125h2.3l5.7,14.5l5.7-14.5H49v16.6h-1.4v-14.4l0,0L42,141.5h-1.5l-5.7-14.3l0,0v14.3h-1.6V125H33.1z
			"/>
		<path fill="#FFFFFF" d="M54.9,136c0,2.2,1.7,3.1,3.6,3.1c1.2,0,3.2-0.3,3.2-2c0-1.8-2.5-2-4.9-2.7c-2.5-0.7-4.9-1.6-4.9-4.6
			c0-3.4,3.2-5,6.1-5c3.4,0,6.6,1.5,6.6,5.3h-3.5c-0.1-2-1.5-2.5-3.3-2.5c-1.1,0-2.5,0.5-2.5,1.9c0,1.2,0.8,1.5,4.9,2.5
			c1.2,0.3,4.9,1,4.9,4.8c0,3.1-2.4,5.3-6.9,5.3c-3.6,0-7-1.8-7-5.9h3.7V136z"/>
		<path fill="#FFFFFF" d="M67.4,125H71v16.6h-3.6V125z"/>
		<path fill="#FFFFFF" d="M86.2,139.7c-1.2,1.6-2.9,2.3-4.5,2.3c-5.1,0-8.2-3.9-8.2-8.6c0-4.9,3.1-8.7,8.2-8.7c3.4,0,6.6,2,6.9,5.8
			h-3.5c-0.5-1.8-1.8-2.7-3.5-2.7c-3.3,0-4.5,2.7-4.5,5.7c0,2.7,1.2,5.6,4.5,5.6c2.4,0,3.7-1.2,4-3.5h-3.6v-2.7h6.9v9h-2.3
			L86.2,139.7z"/>
		<path fill="#FFFFFF" d="M103.2,139.7c-1.2,1.6-2.9,2.3-4.5,2.3c-5.1,0-8.2-3.9-8.2-8.6c0-4.9,3.1-8.7,8.2-8.7c3.4,0,6.6,2,6.9,5.8
			h-3.5c-0.5-1.8-1.8-2.7-3.5-2.7c-3.3,0-4.5,2.7-4.5,5.7c0,2.7,1.2,5.6,4.5,5.6c2.4,0,3.7-1.2,4-3.5h-3.6v-2.7h6.9v9h-2.3
			L103.2,139.7z"/>
		<path fill="#FFFFFF" d="M112.5,127.9h4c1.6,0,2.5,0.7,2.5,2.3c0,1.7-0.9,2.4-2.5,2.4h-4V127.9z M108.9,141.5h3.6V135h3.6
			c1.8,0,2.5,0.8,2.7,2.5c0.2,1.4,0.1,2.9,0.6,4h3.6c-0.7-0.9-0.6-2.8-0.7-3.9c-0.1-1.7-0.7-3.4-2.4-3.9l0,0
			c1.8-0.8,2.6-2.2,2.6-4.2c0-2.5-1.9-4.5-4.9-4.5h-8.8V141.5z"/>
		<path fill="#FFFFFF" d="M131.9,129.1L131.9,129.1l2.2,6h-4.3L131.9,129.1z M123.8,141.5h3.6l1.2-3.6h6.1l1.2,3.6h3.7l-6-16.4h-3.7
			L123.8,141.5z"/>
		<path fill="#FFFFFF" d="M144.1,127.9h2.8c1.7,0,3.2,0.3,3.2,2.5c0,2.2-1.5,2.5-3.2,2.5h-2.8C144.1,132.9,144.1,127.9,144.1,127.9z
			 M140.5,141.5h3.6v-5.9h3.9c4.1,0,5.7-2.6,5.7-5.3c0-2.7-1.6-5.3-5.7-5.3h-7.5V141.5z"/>
		<path fill="#FFFFFF" d="M155,125h3.6v6.4h6.7V125h3.6v16.6h-3.6v-7.3h-6.7v7.1H155V125z"/>
	</g>
</g>
</svg>
